<?xml version="1.0" encoding="UTF-8" standalone="no"?>
<!-- Created with Inkscape (http://www.inkscape.org/) -->

<svg
   width="100mm"
   height="100mm"
   viewBox="0 0 100 100"
   version="1.1"
   id="svg1"
   xml:space="preserve"
   inkscape:version="1.4.4 (dcaf3e7d9e, 2026-05-05)"
   sodipodi:docname="quack.svg"
   xmlns:inkscape="http://www.inkscape.org/namespaces/inkscape"
   xmlns:sodipodi="http://sodipodi.sourceforge.net/DTD/sodipodi-0.dtd"
   xmlns="http://www.w3.org/2000/svg"
   xmlns:svg="http://www.w3.org/2000/svg"><sodipodi:namedview
     id="namedview1"
     pagecolor="#ffffff"
     bordercolor="#000000"
     borderopacity="0.25"
     inkscape:showpageshadow="2"
     inkscape:pageopacity="0.0"
     inkscape:pagecheckerboard="0"
     inkscape:deskcolor="#d1d1d1"
     inkscape:document-units="mm"
     inkscape:zoom="1.3154995"
     inkscape:cx="348.91689"
     inkscape:cy="280.12173"
     inkscape:window-width="1920"
     inkscape:window-height="1024"
     inkscape:window-x="0"
     inkscape:window-y="32"
     inkscape:window-maximized="1"
     inkscape:current-layer="layer1" /><defs
     id="defs1" /><g
     inkscape:label="Layer 1"
     inkscape:groupmode="layer"
     id="layer1"><g
       id="g13"
       transform="translate(-59.226834,-105.77946)"><path
         d="m 138.10578,141.12937 -4.94698,3.84731 c -0.16381,-0.44462 -8.21409,-2.30372 -17.41858,-2.48925 a 15.499581,15.499581 0 0 1 -11.05824,4.63951 15.499581,15.499581 0 0 1 -7.151499,-1.74873 c -5.560925,2.53682 -9.333609,7.05058 -8.758122,14.71486 0.467827,6.23047 3.837308,10.30582 8.494572,12.72481 2.291513,1.19021 4.894559,1.97896 7.617619,2.42672 3.14257,0.51674 6.44471,0.57902 9.61079,0.2775 2.40319,-0.22887 4.72816,-0.66716 6.84557,-1.27485 0.24312,-0.0698 0.48362,-0.142 0.72141,-0.21653 17.81407,-5.58363 20.7473,-24.34534 19.89129,-30.42812 l -3.98529,1.78646 z"
         style="fill:#f6e500;fill-opacity:1;stroke:#000000;stroke-width:1.98515;stroke-linejoin:round"
         id="path11" /><path
         style="fill:none;stroke:#000000;stroke-width:1.98515;stroke-linejoin:round;stroke-dasharray:none;stroke-opacity:1"
         d="m 109.21244,151.18054 17.64568,-0.83459 c 0.56662,8.83525 -4.31206,12.72736 -7.49426,14.86764 -4.82886,3.2478 -15.09349,1.7431 -18.13967,-8.1909"
         id="path2"
         sodipodi:nodetypes="ccsc" /><path
         d="m 104.68198,116.1278 a 15.499581,15.499581 0 0 0 -14.728298,10.67118 c 1.163179,0.26039 2.238394,0.71673 3.163115,1.48983 2.430077,2.03162 4.223941,7.44856 2.146122,8.58449 -1.452211,0.79392 -3.116766,0.97665 -4.8519,0.80202 a 15.499581,15.499581 0 0 0 7.119462,7.70289 15.499581,15.499581 0 0 0 7.151499,1.74873 15.499581,15.499581 0 0 0 11.05824,-4.63951 15.499581,15.499581 0 0 0 4.44107,-10.86032 15.499581,15.499581 0 0 0 -15.49931,-15.49931 z m 0.59583,8.63306 a 3.8854043,3.8854043 0 0 1 3.88555,3.88555 3.8854043,3.8854043 0 0 1 -3.88555,3.88555 3.8854043,3.8854043 0 0 1 -3.88503,-3.88555 3.8854043,3.8854043 0 0 1 3.88503,-3.88555 z"
         style="fill:#f6e500;fill-opacity:1;stroke:#000000;stroke-width:1.98515;stroke-linejoin:round"
         id="path8" /><path
         d="m 105.27781,124.76086 a 3.8854043,3.8854043 0 0 0 -3.88503,3.88555 3.8854043,3.8854043 0 0 0 3.88503,3.88555 3.8854043,3.8854043 0 0 0 3.88555,-3.88555 3.8854043,3.8854043 0 0 0 -3.88555,-3.88555 z"
         style="fill:#42acab;fill-opacity:1;stroke:#000000;stroke-width:2.23077;stroke-linejoin:round"
         id="path10" /><path
         d="m 122.06232,174.03072 c -0.23779,0.0745 -0.47829,0.14675 -0.72141,0.21653 -2.11741,0.60769 -4.44238,1.04598 -6.84557,1.27485 l 0.67851,8.56537 c -1.34682,-2.21673 -14.13166,-1.55995 -11.08821,7.0342 3.04345,8.59415 21.1031,1.66915 21.1031,1.66915 z"
         style="fill:#ffae2a;fill-opacity:1;stroke:#000000;stroke-width:1.98515;stroke-linejoin:round"
         id="path13" /><path
         d="m 104.88455,175.2446 c -2.72306,-0.44776 -5.326106,-1.23651 -7.617619,-2.42672 l -5.827034,7.11222 c 0.564675,-2.53154 -9.109682,-10.91593 -12.869499,-2.61017 -3.759816,8.30577 14.06064,15.82539 14.06064,15.82539 z"
         style="fill:#ffae2a;fill-opacity:1;stroke:#000000;stroke-width:1.98515;stroke-linejoin:round"
         id="path12" /><path
         d="m 87.569332,126.50546 c -2.462264,-0.10845 -5.104947,0.23598 -7.448641,0.1142 -2.447236,-0.12716 -6.488343,5.31114 -1.072803,7.27294 3.010245,1.09047 7.373184,3.38116 11.363131,3.78272 1.735134,0.17463 3.399689,-0.008 4.8519,-0.80202 2.077819,-1.13593 0.283955,-6.55287 -2.146122,-8.58449 -0.924721,-0.7731 -1.999936,-1.22944 -3.163115,-1.48983 -0.762913,-0.17079 -1.563596,-0.25738 -2.38435,-0.29352 z"
         style="fill:#ffd42a;stroke:#000000;stroke-width:1.98515;stroke-linejoin:round"
         id="path9" /></g></g></svg>
